<?xml version="1.0" encoding="UTF-8" standalone="no"?>
<svg
   xmlns:dc="http://purl.org/dc/elements/1.1/"
   xmlns:cc="http://creativecommons.org/ns#"
   xmlns:rdf="http://www.w3.org/1999/02/22-rdf-syntax-ns#"
   xmlns:svg="http://www.w3.org/2000/svg"
   xmlns="http://www.w3.org/2000/svg"
   viewBox="0 0 1133.8533 1133.8533"
   height="1133.8533"
   width="1133.8533"
   xml:space="preserve"
   id="svg2"
   version="1.1"><metadata
     id="metadata8"><rdf:RDF><cc:Work
         rdf:about=""><dc:format>image/svg+xml</dc:format><dc:type
           rdf:resource="http://purl.org/dc/dcmitype/StillImage" /></cc:Work></rdf:RDF></metadata><defs
     id="defs6" /><g
     transform="matrix(1.3333333,0,0,-1.3333333,0,1133.8533)"
     id="g10"><g
       transform="scale(0.1)"
       id="g12"><path
         id="path14"
         style="fill:#225089;fill-opacity:1;fill-rule:nonzero;stroke:none"
         d="m 8361.38,3845.68 -0.97,-1.21 c -138.64,-173.23 -179.37,-405.19 -108.06,-615.29 l 0.06,-0.17 c 98,-288.7 -17.75,-606.73 -278.39,-764.89 l -0.16,-0.1 c -189.69,-115.11 -307.59,-319 -312.73,-540.82 l -0.03,-1.13 c -7.04,-304.34 -224.31,-563.06 -522.86,-622.61 l -0.71,-0.14 C 6919.7,1255.87 6739.12,1104.23 6658.65,897.191 l -0.08,-0.222 C 6548.21,613 6255.48,443.73 5954.31,489.738 l -0.96,0.141 c -219.12,33.469 -440.21,-47 -586.56,-213.488 l -0.62,-0.711 C 5165.01,46.8516 4831.95,-11.6406 4564.88,134.98 v 0 c -194.89,106.989 -430.93,106.989 -625.82,0 l -0.02,-0.011 C 3671.97,-11.6406 3338.91,46.8398 3137.76,275.68 l -0.64,0.73 c -146.35,166.488 -367.43,246.949 -586.56,213.481 l -0.98,-0.141 c -301.17,-46.012 -593.89,123.27 -704.25,407.238 l -0.09,0.242 c -80.47,207.03 -261.04,358.68 -478.87,402.13 l -0.71,0.14 c -298.55,59.56 -515.808,318.28 -522.855,622.62 l -0.028,1.1 c -5.132,221.83 -123.031,425.73 -312.726,540.84 l -0.129,0.08 C 269.27,2622.31 153.52,2940.35 251.527,3229.05 l 0.043,0.13 c 71.321,210.11 30.586,442.07 -108.05,615.31 l -0.961,1.19 c -190.0785,237.51 -190.0785,575.07 0,812.59 l 0.968,1.21 c 138.637,173.22 179.371,405.18 108.055,615.28 l -0.055,0.17 c -98.004,288.7 17.75,606.73 278.395,764.89 l 0.156,0.1 c 189.688,115.11 307.586,319 312.727,540.83 l 0.031,1.12 c 7.047,304.34 224.314,563.06 522.854,622.62 l 0.71,0.13 c 217.84,43.46 398.42,195.1 478.88,402.14 l 0.08,0.22 c 110.37,283.97 403.1,453.23 704.27,407.23 l 0.95,-0.14 c 219.13,-33.48 440.22,46.99 586.57,213.48 l 0.62,0.72 c 201.15,228.82 534.22,287.3 801.29,140.69 v 0 c 194.89,-106.98 430.93,-106.98 625.82,0 l 0.02,0.01 c 267.06,146.6 600.12,88.12 801.27,-140.7 l 0.65,-0.74 c 146.35,-166.49 367.43,-246.95 586.55,-213.48 l 0.98,0.15 c 301.17,46 593.9,-123.27 704.25,-407.24 l 0.1,-0.24 c 80.46,-207.04 261.04,-358.68 478.87,-402.14 l 0.71,-0.14 c 298.54,-59.55 515.81,-318.27 522.85,-622.62 l 0.03,-1.1 c 5.13,-221.83 123.03,-425.73 312.72,-540.84 l 0.14,-0.08 c 260.65,-158.18 376.4,-476.2 278.39,-764.9 l -0.04,-0.14 c -71.32,-210.1 -30.59,-442.07 108.05,-615.3 l 0.96,-1.2 c 190.08,-237.51 190.08,-575.07 0,-812.58" /><path
         id="path16"
         style="fill:#ffffff;fill-opacity:1;fill-rule:nonzero;stroke:none"
         d="M 4251.97,8117.99 C 2116.82,8117.99 385.938,6387.11 385.938,4251.97 385.938,2116.83 2116.82,385.961 4251.97,385.961 6387.12,385.961 8118,2116.83 8118,4251.97 8118,6387.11 6387.12,8117.99 4251.97,8117.99" /><path
         id="path18"
         style="fill:#225089;fill-opacity:1;fill-rule:evenodd;stroke:none"
         d="m 2606.7,6871.33 c 123.93,5.48 270.58,-19.21 297.9,-100.97 44.77,-134.02 -182.19,-329.44 -379.97,-425.36 -48.48,-23.52 -77.86,-29.97 -90.11,-28.37 -11.69,1.52 -13.49,12.42 -9.69,19.93 7.05,14.08 38.93,42.8 81.63,74 222.64,162.6 295.02,281.87 252.99,330.23 -26.96,30.95 -139.82,52.46 -257.01,52.46 -31.82,0 -115.42,-6.9 -124.01,20.64 -7,22.56 105.22,52 228.27,57.44" /><path
         id="path20"
         style="fill:#225089;fill-opacity:1;fill-rule:evenodd;stroke:none"
         d="m 2329.74,6260.44 c 102.99,5.39 228.11,-10.72 298.38,-58.91 34.94,-23.93 59.51,-68 45.28,-118.5 -40.55,-143.35 -191.94,-316.78 -528.32,-450.05 -106.97,-42.38 -191.07,-58.59 -208.72,-47.22 -18.98,12.22 36.19,106.82 52.79,138.22 53.7,101.68 120.79,200.69 186.2,291.33 24.09,33.37 61.27,91.21 94.95,86.58 30.15,-4.14 -5.17,-65.63 -28.4,-104.73 -39.02,-65.6 -146.51,-247.85 -111.05,-258.73 78.39,-24.1 446.2,226.66 391.97,366.32 -25.15,64.82 -184.84,71 -285.41,71 -45.76,0 -145.67,-9.69 -151.2,21.71 -5.96,28.96 151.8,58.12 243.53,62.98" /><path
         id="path22"
         style="fill:#225089;fill-opacity:1;fill-rule:evenodd;stroke:none"
         d="m 3132.66,6429.75 c 62.34,-10.17 113.13,-18.05 124.81,-41.84 13.09,-26.94 -54.8,-28.58 -89.01,-29.21 -163.97,-2.88 -262.84,-5.79 -267.79,-56.14 -6.44,-64.83 70.07,-130.08 145.63,-221.59 69.02,-83.53 147.49,-165.94 124.86,-242.82 -28.18,-95.75 -158.06,-116 -281.72,-116.02 -118.46,-0.09 -230.68,17.08 -277.81,25.54 -58.72,10.49 -50,36.7 -34.33,45.14 17.46,9.42 117.3,9.65 186.68,13.37 57.1,3.04 222.93,2.96 248.78,41.35 31.71,46.99 -45.92,127.45 -117.2,211.69 -88.94,105.13 -186.64,213.64 -134.94,292.9 66.91,102.55 262.64,95.52 372.04,77.63" /><path
         id="path24"
         style="fill:#225089;fill-opacity:1;fill-rule:nonzero;stroke:none"
         d="m 5638.62,6132.15 c 130.59,0 180.91,40.88 201.58,135.33 l 30.95,147.14 c 2.07,9.84 -4.37,12.83 -12.55,12.83 h -63.15 l -17.35,-84.67 -9.94,-45.05 -8.28,-39.15 c -11.56,-53.32 -49.27,-77.35 -113.25,-77.35 -70.36,0 -89.19,23.44 -78.18,77.35 0,0 2.71,13.46 3.63,17.51 l 14.56,66.69 17.4,84.67 h -63.18 c -8.18,0 -15.88,-2.99 -17.96,-12.83 l -31.04,-147.14 c -21.2,-103.75 35.23,-135.33 146.76,-135.33 z M 3420.36,5972.57 c -9.44,-40.64 25.31,-60.28 95.93,-100.38 77.17,-43.8 94.82,-47.15 87.72,-70.25 -5.7,-18.6 -25.95,-19.37 -60.72,-19.37 h -137.52 c -15.62,0 -24.69,-5.88 -27.41,-18.65 l -5.52,-25.78 h 173.39 c 79.38,0 129.12,4.49 147.18,48.86 8.76,21.64 8.68,44 -12.74,66.11 -10.9,11.25 -27,21.13 -49.21,32.58 -99.12,51.25 -125,57.18 -118.73,82 3.54,13.96 14.08,14.47 51.36,14.47 h 116.24 c 15.69,0 24.77,5.89 27.48,18.64 l 5.73,26.92 h -147.12 c -83.32,0 -133.37,-0.44 -146.06,-55.15 z m 764.69,0 c -9.41,-40.64 25.34,-60.28 95.89,-100.38 77.27,-43.8 94.91,-47.15 87.74,-70.25 -5.71,-18.6 -25.95,-19.37 -60.7,-19.37 h -137.5 c -15.63,0 -24.72,-5.88 -27.44,-18.65 l -5.45,-25.78 h 173.37 c 79.37,0 129.09,4.49 147.11,48.86 8.88,21.64 8.77,44 -12.64,66.11 -10.98,11.25 -27.04,21.13 -49.31,32.58 -99.07,51.25 -124.93,57.18 -118.68,82 3.5,13.96 14.05,14.47 51.35,14.47 h 116.32 c 15.59,0 24.7,5.89 27.38,18.64 l 5.78,26.92 h -147.14 c -83.34,0 -133.35,-0.44 -146.08,-55.15 z m 1937.96,0 c -9.4,-40.64 25.35,-60.28 95.84,-100.38 77.28,-43.8 94.93,-47.15 87.74,-70.25 -5.65,-18.6 -25.9,-19.37 -60.62,-19.37 h -137.54 c -15.64,0 -24.72,-5.88 -27.44,-18.65 l -5.46,-25.78 h 173.41 c 79.31,0 129.04,4.49 147.1,48.86 8.83,21.64 8.72,44 -12.71,66.11 -10.91,11.25 -27.03,21.13 -49.27,32.58 -99.05,51.25 -124.98,57.18 -118.67,82 3.46,13.96 14.09,14.47 51.37,14.47 h 116.3 c 15.59,0 24.67,5.89 27.39,18.64 l 5.76,26.92 h -147.1 c -83.35,0 -133.37,-0.44 -146.1,-55.15 z M 4978.7,6187.46 c 8.78,21.66 8.71,44.06 -12.74,66.12 -10.92,11.27 -26.99,21.12 -49.27,32.67 -99.08,51.24 -124.94,57.1 -118.71,81.93 3.52,13.92 14.11,14.49 51.42,14.49 h 116.23 c 15.67,0 24.75,5.86 27.48,18.6 l 5.7,27.05 h -147.12 c -83.34,0 -133.36,-0.49 -146.12,-55.26 -9.37,-40.59 25.38,-60.28 95.93,-100.39 77.22,-43.8 94.84,-47.13 87.78,-70.28 -5.76,-18.61 -25.97,-19.34 -60.69,-19.34 h -137.51 c -15.66,0 -24.76,-5.88 -27.48,-18.64 l -5.44,-25.83 h 173.37 c 79.33,0 129.12,4.49 147.17,48.88 z m -369.43,0 c 8.76,21.66 8.69,44.06 -12.69,66.12 -10.97,11.27 -27.05,21.12 -49.29,32.67 -99.15,51.24 -124.96,57.1 -118.68,81.93 3.48,13.92 14,14.49 51.39,14.49 h 116.19 c 15.68,0 24.76,5.86 27.44,18.6 l 5.8,27.05 h -147.17 c -83.33,0 -133.34,-0.49 -146.05,-55.26 -9.43,-40.59 25.35,-60.28 95.88,-100.39 77.2,-43.8 94.86,-47.13 87.77,-70.28 -5.67,-18.61 -25.95,-19.34 -60.75,-19.34 h -137.42 c -15.69,0 -24.74,-5.88 -27.52,-18.64 l -5.46,-25.83 h 173.43 c 79.35,0 129.06,4.49 147.13,48.88 z m 1612.74,239.99 c -15.66,0 -24.49,-4.89 -26.83,-15.7 l -6.2,-29.15 h 124.33 l -51.83,-244.02 h 55.75 c 15.68,0 24.81,5.88 27.91,20.55 l 47.54,223.47 h 103.76 c 14.71,0 19.86,5.93 22.41,17.7 l 5.71,27.15 z m -2708.96,-80.32 c -7.82,0 -13.72,-4.88 -14.75,-9.79 L 3456,6138.58 h 187.06 c 104.75,0 177.35,35.6 200.02,146.28 16.9,82.39 -22.13,142.59 -128.86,142.59 h -226.21 c 0,0 -0.49,-2.05 -0.93,-3.75 -5.1,-19.43 -2.42,-40.88 33.34,-40.88 h 164.43 c 79.1,0 90.41,-36.19 74.6,-99.93 -15.52,-62.56 -42.59,-94.78 -101.97,-99.71 h -112.64 l 34.79,163.95 z m 2664.66,-181.52 c 2.68,12.66 -2.17,17.57 -14.85,17.57 h -169.41 l 49.87,234.48 c 0.99,4.9 -2.88,9.79 -9.68,9.79 h -67.58 l -61.37,-288.87 h 267.24 z M 5673.3,6026.93 h -71.53 l -138.48,-112.58 -90.6,112.58 h -71.48 c -11.73,0 -18.18,-6.82 -20.62,-18.59 l -57.44,-270.2 h 60.71 c 12.75,0 19.85,5.85 22.13,16.62 l 43.02,202.24 69.78,-91.06 c 2.06,-3.89 7.89,-8.8 16.66,-8.8 h 31.4 c 8.82,0 16.67,4.91 20.44,8.8 l 108.44,91.06 -43.02,-202.24 c -2.27,-10.77 2.34,-16.62 15.13,-16.62 h 60.65 l 57.52,270.2 c 2.43,11.77 -0.95,18.59 -12.71,18.59 z m -756.54,-18.59 -57.39,-270.2 h 291.73 l 6.14,28.88 c 2.55,11.79 -0.59,15.7 -15.29,15.7 h -193.8 l 16.45,77.5 h 171.33 c 4.91,0 8.44,2.92 9.31,6.88 l 6.53,30.74 c 0.8,3.88 -1.51,6.87 -6.37,6.87 h -171.38 l 16.48,77.38 h 187.02 c 8.81,0 17.57,0 19.95,10.78 l 7.15,34.06 h -263.34 c -13.7,0 -21.82,-5.8 -24.52,-18.59 z m 866.28,0 -57.42,-270.2 h 291.83 l 6.06,28.88 c 2.53,11.79 -0.57,15.7 -15.22,15.7 h -193.86 l 16.48,77.5 h 171.31 c 4.91,0 8.48,2.92 9.26,6.88 l 6.58,30.74 c 0.83,3.88 -1.57,6.87 -6.37,6.87 h -171.36 l 16.43,77.38 h 187.03 c 8.85,0 17.61,0 19.88,10.78 l 7.24,34.06 h -263.33 c -13.74,0 -21.77,-5.8 -24.54,-18.59 z m -1749.81,8.85 -28.01,-131.5 c -48.92,-13.75 -175.69,-38.89 -155.9,54.1 l 18.54,87.14 h -66.63 c -7.85,0 -13.78,-4.82 -14.83,-9.74 l -16.81,-79.33 c -32.06,-150.8 124.07,-130.2 225.11,-101.85 l -20.81,-97.87 h 55.76 c 15.7,0 24.76,5.85 27.94,20.51 l 56.93,268.28 H 4047 c -6.83,0 -12.77,-4.82 -13.77,-9.74 z m 833.46,-17.36 5.81,27.08 h -302.51 c -15.67,0 -24.56,-4.86 -26.85,-15.63 l -6.23,-29.12 h 124.32 l -51.8,-244.02 h 55.77 c 15.65,0 24.69,5.85 27.92,20.51 l 47.46,223.51 h 103.78 c 14.69,0 19.85,5.89 22.33,17.67 z m -870.06,306.2 c 11.86,56.27 47.73,76.64 111.74,76.64 67.63,0 85.37,-23.21 74.36,-76.64 0,0 -2.77,-13.36 -3.72,-17.38 -1.32,-5.97 -4.32,-21.5 -21.86,-21.5 H 3988.4 Z m -95.27,-167.45 h 59.69 l 17.39,83.99 h 186.02 l -17.35,-83.99 h 59.72 c 7.85,0 15.32,2.96 17.37,12.75 l 31.06,145.85 c 22.78,110.66 -45.52,134.16 -137.59,134.16 -110.3,0 -173.27,-25.33 -197.3,-134.16 l -31.01,-145.85 c -2.07,-9.79 4.13,-12.75 12,-12.75 z m 1255.55,167.45 c 11.9,56.27 47.71,76.64 111.72,76.64 67.66,0 85.36,-23.21 74.39,-76.64 0,0 -2.75,-13.36 -3.74,-17.38 -1.33,-5.97 -4.33,-21.5 -21.83,-21.5 h -168.8 z m -95.27,-167.45 h 59.71 l 17.42,83.99 h 185.98 l -17.38,-83.99 h 59.75 c 7.83,0 15.32,2.96 17.39,12.75 l 30.99,145.85 c 22.87,110.66 -45.46,134.16 -137.53,134.16 -110.34,0 -173.3,-25.33 -197.35,-134.16 l -31,-145.85 c -2.03,-9.79 4.12,-12.75 12.02,-12.75" /><path
         id="path26"
         style="fill:#db2524;fill-opacity:1;fill-rule:nonzero;stroke:none"
         d="m 624.582,4251.97 c 0,-2003.34 1624.038,-3627.372 3627.388,-3627.372 2003.35,0 3627.39,1624.032 3627.39,3627.372 0,360.39 -52.81,708.39 -150.68,1036.97 H 775.258 C 677.395,4960.36 624.582,4612.36 624.582,4251.97" /><g
         transform="scale(10)"
         id="g28"><text
           id="text32"
           style="font-variant:normal;font-weight:normal;font-size:54.00002289px;writing-mode:lr-tb;fill:#ffffff;fill-opacity:1;fill-rule:nonzero;stroke:none"
           transform="matrix(0.466063,-0.884752,-0.884752,-0.466063,125.201,284.56)"><tspan
             id="tspan30"
             y="0"
             x="0">S</tspan></text>
<text
           id="text36"
           style="font-variant:normal;font-weight:normal;font-size:53.99998093px;writing-mode:lr-tb;fill:#ffffff;fill-opacity:1;fill-rule:nonzero;stroke:none"
           transform="matrix(0.555283,-0.831661,-0.831661,-0.555283,139.507,257.101)"><tspan
             id="tspan34"
             y="0"
             x="0">O</tspan></text>
<text
           id="text40"
           style="font-variant:normal;font-weight:normal;font-size:53.99999619px;writing-mode:lr-tb;fill:#ffffff;fill-opacity:1;fill-rule:nonzero;stroke:none"
           transform="matrix(0.632755,-0.774352,-0.774352,-0.632755,160.037,226.721)"><tspan
             id="tspan38"
             y="0"
             x="0">L</tspan></text>
<text
           id="text44"
           style="font-variant:normal;font-weight:normal;font-size:54.00001144px;writing-mode:lr-tb;fill:#ffffff;fill-opacity:1;fill-rule:nonzero;stroke:none"
           transform="matrix(0.681845,-0.731497,-0.731497,-0.681845,177.366,205.766)"><tspan
             id="tspan42"
             y="0"
             x="0">I</tspan></text>
<text
           id="text48"
           style="font-variant:normal;font-weight:normal;font-size:53.99996948px;writing-mode:lr-tb;fill:#ffffff;fill-opacity:1;fill-rule:nonzero;stroke:none"
           transform="matrix(0.738381,-0.674383,-0.674383,-0.738381,188.525,193.206)"><tspan
             id="tspan46"
             y="0"
             x="0">D</tspan></text>
<text
           id="text52"
           style="font-variant:normal;font-weight:normal;font-size:53.99997711px;writing-mode:lr-tb;fill:#ffffff;fill-opacity:1;fill-rule:nonzero;stroke:none"
           transform="matrix(0.82088,-0.5711,-0.5711,-0.82088,216.255,167.42)"><tspan
             id="tspan50"
             y="0"
             x="0">W</tspan></text>
<text
           id="text56"
           style="font-variant:normal;font-weight:normal;font-size:54.00001907px;writing-mode:lr-tb;fill:#ffffff;fill-opacity:1;fill-rule:nonzero;stroke:none"
           transform="matrix(0.892969,-0.450119,-0.450119,-0.892969,259.873,137.892)"><tspan
             id="tspan54"
             y="0"
             x="0">O</tspan></text>
<text
           id="text60"
           style="font-variant:normal;font-weight:normal;font-size:54px;writing-mode:lr-tb;fill:#ffffff;fill-opacity:1;fill-rule:nonzero;stroke:none"
           transform="matrix(0.936697,-0.350141,-0.350141,-0.936697,293.129,121.21)"><tspan
             id="tspan58"
             y="0"
             x="0">R</tspan></text>
<text
           id="text64"
           style="font-variant:normal;font-weight:normal;font-size:53.99998856px;writing-mode:lr-tb;fill:#ffffff;fill-opacity:1;fill-rule:nonzero;stroke:none"
           transform="matrix(0.968846,-0.247663,-0.247663,-0.968846,326.627,108.775)"><tspan
             id="tspan62"
             y="0"
             x="0">K</tspan></text>
<text
           id="text68"
           style="font-variant:normal;font-weight:normal;font-size:53.99997711px;writing-mode:lr-tb;fill:#ffffff;fill-opacity:1;fill-rule:nonzero;stroke:none"
           transform="matrix(0.989755,-0.142773,-0.142773,-0.989755,362.587,99.8629)"><tspan
             id="tspan66"
             y="0"
             x="0">S</tspan></text>
<text
           id="text72"
           style="font-variant:normal;font-weight:normal;font-size:54.00002289px;writing-mode:lr-tb;fill:#ffffff;fill-opacity:1;fill-rule:nonzero;stroke:none"
           transform="matrix(0.999869,0.0162111,0.0162111,-0.999869,409.127,94.025)"><tspan
             id="tspan70"
             y="0"
             x="0">P</tspan></text>
<text
           id="text76"
           style="font-variant:normal;font-weight:normal;font-size:54.00001526px;writing-mode:lr-tb;fill:#ffffff;fill-opacity:1;fill-rule:nonzero;stroke:none"
           transform="matrix(0.994352,0.106135,0.106135,-0.994352,443.488,94.3449)"><tspan
             id="tspan74"
             y="0"
             x="0">R</tspan></text>
<text
           id="text80"
           style="font-variant:normal;font-weight:normal;font-size:53.99998093px;writing-mode:lr-tb;fill:#ffffff;fill-opacity:1;fill-rule:nonzero;stroke:none"
           transform="matrix(0.975333,0.220737,0.220737,-0.975333,480.437,98.3621)"><tspan
             id="tspan78"
             y="0"
             x="0">O</tspan></text>
<text
           id="text84"
           style="font-variant:normal;font-weight:normal;font-size:54.00001907px;writing-mode:lr-tb;fill:#ffffff;fill-opacity:1;fill-rule:nonzero;stroke:none"
           transform="matrix(0.945582,0.325385,0.325385,-0.945582,518.739,107.354)"><tspan
             id="tspan82"
             y="0"
             x="0">F</tspan></text>
<text
           id="text88"
           style="font-variant:normal;font-weight:normal;font-size:53.99998474px;writing-mode:lr-tb;fill:#ffffff;fill-opacity:1;fill-rule:nonzero;stroke:none"
           transform="matrix(0.909459,0.415793,0.415793,-0.909459,548.736,117.754)"><tspan
             id="tspan86"
             y="0"
             x="0">E</tspan></text>
<text
           id="text92"
           style="font-variant:normal;font-weight:normal;font-size:54.00000763px;writing-mode:lr-tb;fill:#ffffff;fill-opacity:1;fill-rule:nonzero;stroke:none"
           transform="matrix(0.862777,0.505585,0.505585,-0.862777,579.216,131.868)"><tspan
             id="tspan90"
             y="0"
             x="0">S</tspan></text>
<text
           id="text96"
           style="font-variant:normal;font-weight:normal;font-size:54.00000763px;writing-mode:lr-tb;fill:#ffffff;fill-opacity:1;fill-rule:nonzero;stroke:none"
           transform="matrix(0.811733,0.584029,0.584029,-0.811733,605.976,147.592)"><tspan
             id="tspan94"
             y="0"
             x="0">S</tspan></text>
<text
           id="text100"
           style="font-variant:normal;font-weight:normal;font-size:54.00001526px;writing-mode:lr-tb;fill:#ffffff;fill-opacity:1;fill-rule:nonzero;stroke:none"
           transform="matrix(0.764517,0.644604,0.644604,-0.764517,631.955,166.699)"><tspan
             id="tspan98"
             y="0"
             x="0">I</tspan></text>
<text
           id="text104"
           style="font-variant:normal;font-weight:normal;font-size:54.00001907px;writing-mode:lr-tb;fill:#ffffff;fill-opacity:1;fill-rule:nonzero;stroke:none"
           transform="matrix(0.707241,0.706973,0.706973,-0.707241,646.011,178.058)"><tspan
             id="tspan102"
             y="0"
             x="0">O</tspan></text>
<text
           id="text108"
           style="font-variant:normal;font-weight:normal;font-size:54.00000381px;writing-mode:lr-tb;fill:#ffffff;fill-opacity:1;fill-rule:nonzero;stroke:none"
           transform="matrix(0.615907,0.787819,0.787819,-0.615907,673.47,205.495)"><tspan
             id="tspan106"
             y="0"
             x="0">N</tspan></text>
<text
           id="text112"
           style="font-variant:normal;font-weight:normal;font-size:54.0000267px;writing-mode:lr-tb;fill:#ffffff;fill-opacity:1;fill-rule:nonzero;stroke:none"
           transform="matrix(0.518952,0.854804,0.854804,-0.518952,698.754,238.083)"><tspan
             id="tspan110"
             y="0"
             x="0">A</tspan></text>
<text
           id="text116"
           style="font-variant:normal;font-weight:normal;font-size:54px;writing-mode:lr-tb;fill:#ffffff;fill-opacity:1;fill-rule:nonzero;stroke:none"
           transform="matrix(0.427896,0.903828,0.903828,-0.427896,718.477,271.2)"><tspan
             id="tspan114"
             y="0"
             x="0">L</tspan></text>
<text
           id="text122"
           style="font-variant:normal;font-weight:600;font-size:57.56100082px;writing-mode:lr-tb;fill:#ffffff;fill-opacity:1;fill-rule:nonzero;stroke:none"
           transform="matrix(1,0,0,-1,249.659,430.637)"><tspan
             id="tspan118"
             y="0"
             x="0 51.747108 82.657364 114.25746 155.87369 193.05728 235.13437 252.34439 283.94504 321.12863">MECHANICAL</tspan><tspan
             id="tspan120"
             y="60"
             x="76.008202 113.9403 145.25281 175.98961 193.19963 231.53551">DESIGN</tspan></text>
</g></g></g></svg>